<svg width="42" height="43" viewBox="0 0 42 43" fill="none" xmlns="http://www.w3.org/2000/svg">
<path d="M32.3713 24.6458L32.9442 27.5905C32.9985 27.8637 32.9951 28.1452 32.9343 28.417C32.8735 28.6888 32.7567 28.9449 32.5912 29.1689C32.4257 29.3929 32.2152 29.5798 31.9733 29.7178C31.7314 29.8558 31.4633 29.9417 31.1862 29.97C28.1018 30.2295 24.9996 29.7618 22.1288 28.6045C19.4639 27.5588 17.0619 25.9392 15.0934 23.8607C12.9363 21.6227 11.3367 18.908 10.4243 15.9365C10.3469 15.6699 10.326 15.39 10.3627 15.1148C10.3995 14.8396 10.4931 14.575 10.6377 14.338C10.7823 14.1009 10.9747 13.8966 11.2026 13.738C11.4304 13.5793 11.6889 13.4699 11.9614 13.4166L14.9062 12.8437C15.3816 12.7464 15.8763 12.8252 16.2979 13.0656C16.7195 13.3059 17.0394 13.6914 17.1978 14.1502C17.5054 15.0684 17.916 15.9489 18.4215 16.7748C18.6219 17.1004 18.7248 17.4767 18.7179 17.859C18.7111 18.2413 18.5947 18.6137 18.3827 18.9319L17.3786 20.421C19.2541 22.6067 21.6847 24.2456 24.414 25.1648L25.4181 23.6757C25.6336 23.3599 25.9352 23.1124 26.2871 22.9627C26.6389 22.813 27.0263 22.7673 27.4033 22.831C28.3586 22.9901 29.3287 23.0406 30.2953 22.9816C30.7852 22.9561 31.2674 23.1115 31.6502 23.4184C32.0329 23.7252 32.2896 24.162 32.3713 24.6458Z" stroke="white" stroke-width="2" stroke-linecap="round" stroke-linejoin="round"/>
<path d="M41.9999 20.3611C42.0078 23.3675 41.3054 26.3332 39.9499 29.0167C38.3428 32.2323 35.8722 34.937 32.8147 36.8278C29.7572 38.7186 26.2337 39.7208 22.6389 39.7222C19.6325 39.7301 16.6668 39.0277 13.9833 37.6722L1 42L5.32777 29.0167C3.97234 26.3332 3.26994 23.3675 3.27777 20.3611C3.27917 16.7663 4.28139 13.2428 6.17219 10.1853C8.06298 7.12784 10.7677 4.65718 13.9833 3.05006C16.6668 1.69463 19.6325 0.992226 22.6389 1.00006H23.7777C28.5254 1.26199 33.0097 3.26591 36.3719 6.62812C39.7341 9.99034 41.738 14.4746 41.9999 19.2223V20.3611Z" stroke="white" stroke-width="2" stroke-linecap="round" stroke-linejoin="round"/>
</svg>
